<svg width="59" height="13" viewBox="0 0 59 13" fill="none" xmlns="http://www.w3.org/2000/svg">
<path d="M52.23 6.14985L46.23 0.149852C46.1835 0.102988 46.1282 0.0657909 46.0673 0.0404066C46.0064 0.0150222 45.941 0.00195312 45.875 0.00195312C45.809 0.00195313 45.7436 0.0150222 45.6827 0.0404066C45.6218 0.0657909 45.5665 0.102988 45.52 0.149852C45.4284 0.243317 45.3771 0.368976 45.3771 0.499852C45.3771 0.630729 45.4284 0.756388 45.52 0.849852L50.71 5.99985H0.5C0.367392 5.99985 0.240215 6.05253 0.146447 6.1463C0.0526784 6.24007 0 6.36724 0 6.49985V6.49985C0 6.63246 0.0526784 6.75964 0.146447 6.85341C0.240215 6.94717 0.367392 6.99985 0.5 6.99985H50.71L45.56 12.1499C45.4658 12.244 45.413 12.3717 45.413 12.5049C45.413 12.638 45.4658 12.7657 45.56 12.8599C45.6542 12.954 45.7819 13.0069 45.915 13.0069C46.0482 13.0069 46.1758 12.954 46.27 12.8599L52.27 6.91985C52.3176 6.86213 52.3514 6.79426 52.3688 6.72146C52.3861 6.64865 52.3865 6.57285 52.37 6.49985C52.3715 6.43508 52.3599 6.37069 52.3358 6.31053C52.3117 6.25038 52.2757 6.19572 52.23 6.14985V6.14985Z" fill="black"/>
<circle cx="55.5" cy="6.5" r="3" stroke="black"/>
</svg>
