<svg width="24" height="24" viewBox="0 0 24 24" fill="none" xmlns="http://www.w3.org/2000/svg">
<g clip-path="url(#clip0_468_3809)">
<path d="M2.57171 4.28599C2.11705 4.28599 1.68102 4.4666 1.35952 4.7881C1.03803 5.10959 0.857422 5.54562 0.857422 6.00028V21.4288C0.857422 21.8835 1.03803 22.3195 1.35952 22.641C1.68102 22.9625 2.11705 23.1431 2.57171 23.1431H21.4288C21.8835 23.1431 22.3195 22.9625 22.641 22.641C22.9625 22.3195 23.1431 21.8835 23.1431 21.4288V6.00028C23.1431 5.54562 22.9625 5.10959 22.641 4.7881C22.3195 4.4666 21.8835 4.28599 21.4288 4.28599H18.0003M6.00028 0.857422V7.71456M18.0003 0.857422V7.71456M6.00028 4.28599H14.5717" stroke="#011B3E" stroke-linecap="round" stroke-linejoin="round"/>
<path d="M5.99972 13.7143C6.47311 13.7143 6.85686 13.3305 6.85686 12.8571C6.85686 12.3838 6.47311 12 5.99972 12C5.52633 12 5.14258 12.3838 5.14258 12.8571C5.14258 13.3305 5.52633 13.7143 5.99972 13.7143Z" stroke="#011B3E" stroke-linecap="round" stroke-linejoin="round"/>
<path d="M11.9997 13.7143C12.4731 13.7143 12.8569 13.3305 12.8569 12.8571C12.8569 12.3838 12.4731 12 11.9997 12C11.5263 12 11.1426 12.3838 11.1426 12.8571C11.1426 13.3305 11.5263 13.7143 11.9997 13.7143Z" stroke="#011B3E" stroke-linecap="round" stroke-linejoin="round"/>
<path d="M17.9997 13.7143C18.4731 13.7143 18.8569 13.3305 18.8569 12.8571C18.8569 12.3838 18.4731 12 17.9997 12C17.5263 12 17.1426 12.3838 17.1426 12.8571C17.1426 13.3305 17.5263 13.7143 17.9997 13.7143Z" stroke="#011B3E" stroke-linecap="round" stroke-linejoin="round"/>
<path d="M5.99972 18.8578C6.47311 18.8578 6.85686 18.4741 6.85686 18.0007C6.85686 17.5273 6.47311 17.1436 5.99972 17.1436C5.52633 17.1436 5.14258 17.5273 5.14258 18.0007C5.14258 18.4741 5.52633 18.8578 5.99972 18.8578Z" stroke="#011B3E" stroke-linecap="round" stroke-linejoin="round"/>
</g>
<defs>
<clipPath id="clip0_468_3809">
<rect width="24" height="24" fill="white"/>
</clipPath>
</defs>
</svg>
