<svg width="24" height="24" viewBox="0 0 24 24" fill="none" xmlns="http://www.w3.org/2000/svg">
<g clip-path="url(#clip0_407_3180)">
<path d="M2.12516 11.2117L21.8394 2.24599M21.8394 2.24599L18.1537 0.857422M21.8394 2.24599L20.468 5.93171M22.7137 23.1603H18.428V11.1603C18.428 10.933 18.5183 10.7149 18.6791 10.5542C18.8398 10.3934 19.0578 10.3031 19.2852 10.3031H21.8566C22.0839 10.3031 22.3019 10.3934 22.4627 10.5542C22.6234 10.7149 22.7137 10.933 22.7137 11.1603V23.1603ZM14.1423 23.1603H9.85658V13.7317C9.85658 13.5044 9.94689 13.2864 10.1076 13.1256C10.2684 12.9649 10.4864 12.8746 10.7137 12.8746H13.2852C13.5125 12.8746 13.7305 12.9649 13.8912 13.1256C14.052 13.2864 14.1423 13.5044 14.1423 13.7317V23.1603ZM5.57087 23.1603H1.28516V16.3031C1.28516 16.0758 1.37546 15.8578 1.53621 15.697C1.69695 15.5363 1.91497 15.446 2.1423 15.446H4.71373C4.94106 15.446 5.15907 15.5363 5.31982 15.697C5.48056 15.8578 5.57087 16.0758 5.57087 16.3031V23.1603Z" stroke="#011B3E" stroke-linecap="round" stroke-linejoin="round"/>
</g>
<defs>
<clipPath id="clip0_407_3180">
<rect width="24" height="24" fill="white"/>
</clipPath>
</defs>
</svg>
