<svg width="24" height="23" viewBox="0 0 24 23" fill="none" xmlns="http://www.w3.org/2000/svg">
<path d="M20.7992 9.8C20.7992 7.46609 19.8721 5.22778 18.2218 3.57746C16.5714 1.92714 14.3331 1 11.9992 1C9.66531 1 7.427 1.92714 5.77668 3.57746C4.12636 5.22778 3.19922 7.46609 3.19922 9.8" stroke="#011B3E" stroke-linecap="round" stroke-linejoin="round"/>
<path d="M20.8 17.5003V18.0503C20.8 18.6338 20.5682 19.1934 20.1556 19.6059C19.7431 20.0185 19.1835 20.2503 18.6 20.2503H14.75M1 14.6821V12.6185C1.00007 12.1279 1.16412 11.6514 1.46608 11.2648C1.76803 10.8781 2.19055 10.6035 2.6665 10.4845L4.5805 10.0049C4.67776 9.98069 4.77926 9.97894 4.87729 9.99979C4.97533 10.0206 5.06733 10.0635 5.14631 10.1252C5.2253 10.1869 5.28919 10.2658 5.33315 10.3559C5.3771 10.446 5.39996 10.5449 5.4 10.6451V16.6544C5.40017 16.7549 5.37742 16.854 5.33347 16.9443C5.28953 17.0346 5.22555 17.1137 5.14641 17.1756C5.06727 17.2374 4.97506 17.2804 4.8768 17.3012C4.77854 17.322 4.67682 17.3202 4.5794 17.2957L2.6654 16.8172C2.18966 16.698 1.76738 16.4233 1.46564 16.0367C1.1639 15.65 1.00001 15.1737 1 14.6832V14.6821ZM23 14.6821V12.6185C22.9999 12.1279 22.8359 11.6514 22.5339 11.2648C22.232 10.8781 21.8094 10.6035 21.3335 10.4845L19.4195 10.0049C19.3222 9.98069 19.2207 9.97894 19.1227 9.99979C19.0247 10.0206 18.9327 10.0635 18.8537 10.1252C18.7747 10.1869 18.7108 10.2658 18.6669 10.3559C18.6229 10.446 18.6 10.5449 18.6 10.6451V16.6544C18.5999 16.7547 18.6226 16.8538 18.6665 16.944C18.7104 17.0342 18.7742 17.1132 18.8533 17.175C18.9323 17.2369 19.0243 17.2799 19.1224 17.3008C19.2206 17.3217 19.3222 17.32 19.4195 17.2957L21.3335 16.8172C21.8094 16.6982 22.232 16.4236 22.5339 16.037C22.8359 15.6503 22.9999 15.1738 23 14.6832V14.6821Z" stroke="#011B3E"/>
<path d="M13.6492 21.8996H10.3492C9.91161 21.8996 9.49193 21.7258 9.18249 21.4163C8.87306 21.1069 8.69922 20.6872 8.69922 20.2496C8.69922 19.812 8.87306 19.3923 9.18249 19.0829C9.49193 18.7734 9.91161 18.5996 10.3492 18.5996H13.6492C14.0868 18.5996 14.5065 18.7734 14.8159 19.0829C15.1254 19.3923 15.2992 19.812 15.2992 20.2496C15.2992 20.6872 15.1254 21.1069 14.8159 21.4163C14.5065 21.7258 14.0868 21.8996 13.6492 21.8996Z" stroke="#011B3E"/>
</svg>
