<svg width="263" height="60" viewBox="0 0 263 60" fill="none" xmlns="http://www.w3.org/2000/svg">
<path d="M118.602 20.4766H252.999C258.521 20.4766 262.999 24.9537 262.999 30.4766V50.9336H128.602C123.079 50.9336 118.602 46.4564 118.602 40.9336V20.4766Z" fill="#011B3E"/>
<path d="M144.594 50.9413V40.2533H144.882C144.562 41.5333 144.008 42.5253 143.218 43.2293C142.45 43.9333 141.469 44.2853 140.274 44.2853C139.122 44.2853 138.12 43.9546 137.266 43.2933C136.413 42.6106 135.752 41.6506 135.282 40.4133C134.813 39.176 134.578 37.704 134.578 35.9973C134.578 34.312 134.813 32.8506 135.282 31.6133C135.752 30.376 136.402 29.416 137.234 28.7333C138.088 28.0506 139.101 27.7093 140.274 27.7093C141.469 27.7093 142.45 28.0613 143.218 28.7653C144.008 29.4693 144.562 30.472 144.882 31.7733H144.594V20.4773H146.546V31.7733H146.226C146.568 30.472 147.133 29.4693 147.922 28.7653C148.712 28.0613 149.682 27.7093 150.834 27.7093C152.008 27.7093 153.021 28.0506 153.874 28.7333C154.728 29.416 155.389 30.376 155.858 31.6133C156.328 32.8506 156.562 34.312 156.562 35.9973C156.562 37.704 156.328 39.176 155.858 40.4133C155.389 41.6506 154.728 42.6106 153.874 43.2933C153.042 43.9546 152.029 44.2853 150.834 44.2853C149.682 44.2853 148.712 43.9333 147.922 43.2293C147.133 42.5253 146.568 41.5333 146.226 40.2533H146.546V50.9413H144.594ZM140.562 42.6853C141.842 42.6853 142.834 42.12 143.538 40.9893C144.264 39.8373 144.626 38.1733 144.626 35.9973C144.626 33.8853 144.264 32.2533 143.538 31.1013C142.813 29.928 141.821 29.3413 140.562 29.3413C139.304 29.3413 138.312 29.928 137.586 31.1013C136.861 32.2533 136.498 33.8853 136.498 35.9973C136.498 38.1733 136.861 39.8373 137.586 40.9893C138.312 42.12 139.304 42.6853 140.562 42.6853ZM150.546 42.6853C151.805 42.6853 152.797 42.12 153.522 40.9893C154.248 39.8373 154.61 38.1733 154.61 35.9973C154.61 33.8853 154.237 32.2533 153.49 31.1013C152.765 29.928 151.784 29.3413 150.546 29.3413C149.266 29.3413 148.274 29.928 147.57 31.1013C146.866 32.2533 146.514 33.8853 146.514 35.9973C146.514 38.1733 146.866 39.8373 147.57 40.9893C148.274 42.12 149.266 42.6853 150.546 42.6853ZM160.366 44.0293V27.9973H162.158V42.3333H161.358L172.046 27.9973H173.742V44.0293H171.95V29.6613H172.782L162.062 44.0293H160.366ZM178.476 44.0293V27.9973H180.428V34.9093H189.996V27.9973H191.948V44.0293H189.996V36.5413H180.428V44.0293H178.476ZM202.856 44.2853C201.405 44.2853 200.147 43.9546 199.08 43.2933C198.013 42.632 197.192 41.6826 196.616 40.4453C196.04 39.208 195.752 37.7253 195.752 35.9973C195.752 34.2693 196.04 32.7973 196.616 31.5813C197.213 30.344 198.045 29.3946 199.112 28.7333C200.179 28.0506 201.427 27.7093 202.856 27.7093C204.328 27.7093 205.597 28.0933 206.664 28.8613C207.752 29.6293 208.467 30.6746 208.808 31.9973H208.424L208.744 27.9973H210.632C210.568 28.616 210.504 29.224 210.44 29.8213C210.397 30.4186 210.376 31.0053 210.376 31.5813V44.0293H208.424V40.0293H208.776C208.435 41.352 207.72 42.3973 206.632 43.1653C205.565 43.912 204.307 44.2853 202.856 44.2853ZM203.112 42.6213C204.755 42.6213 206.056 42.056 207.016 40.9253C207.976 39.7946 208.456 38.152 208.456 35.9973C208.456 33.8426 207.976 32.2 207.016 31.0693C206.056 29.9386 204.755 29.3733 203.112 29.3733C201.469 29.3733 200.157 29.9386 199.176 31.0693C198.216 32.2 197.736 33.8426 197.736 35.9973C197.736 38.152 198.216 39.7946 199.176 40.9253C200.157 42.056 201.469 42.6213 203.112 42.6213ZM215.196 44.0293V27.9973H217.148V34.9093H226.716V27.9973H228.668V44.0293H226.716V36.5413H217.148V44.0293H215.196ZM239.96 44.2853C238.445 44.2853 237.123 43.9546 235.992 43.2933C234.861 42.6106 233.987 41.64 233.368 40.3813C232.771 39.1226 232.472 37.6293 232.472 35.9013C232.472 34.1733 232.781 32.7013 233.4 31.4853C234.019 30.248 234.883 29.3093 235.992 28.6693C237.123 28.0293 238.445 27.7093 239.96 27.7093C240.984 27.7093 241.965 27.9013 242.904 28.2853C243.864 28.6693 244.653 29.2026 245.272 29.8853L244.472 31.3253C243.811 30.664 243.096 30.184 242.328 29.8853C241.56 29.5653 240.792 29.4053 240.024 29.4053C238.275 29.4053 236.909 29.96 235.928 31.0693C234.947 32.1786 234.456 33.8 234.456 35.9333C234.456 38.0666 234.947 39.72 235.928 40.8933C236.909 42.0453 238.275 42.6213 240.024 42.6213C240.749 42.6213 241.496 42.472 242.264 42.1733C243.053 41.8746 243.789 41.384 244.472 40.7013L245.272 42.1413C244.632 42.824 243.821 43.3573 242.84 43.7413C241.88 44.104 240.92 44.2853 239.96 44.2853Z" fill="white"/>
<path d="M123.039 14V11.144C122.768 11.3027 122.474 11.424 122.157 11.508C121.839 11.592 121.499 11.634 121.135 11.634C120.145 11.634 119.408 11.4053 118.923 10.948C118.447 10.4813 118.209 9.77667 118.209 8.834V6.972H119.343V8.75C119.343 9.43133 119.497 9.926 119.805 10.234C120.122 10.5327 120.617 10.682 121.289 10.682C121.634 10.682 121.942 10.6447 122.213 10.57C122.483 10.4953 122.749 10.3693 123.011 10.192V6.972H124.145V14H123.039ZM128.911 14.126C128.286 14.126 127.74 13.9813 127.273 13.692C126.807 13.3933 126.443 12.9733 126.181 12.432C125.929 11.8907 125.803 11.242 125.803 10.486C125.803 9.72067 125.929 9.06733 126.181 8.526C126.443 7.98467 126.807 7.56933 127.273 7.28C127.74 6.99067 128.286 6.846 128.911 6.846C129.546 6.846 130.092 7.00933 130.549 7.336C131.016 7.65333 131.324 8.08733 131.473 8.638H131.305L131.459 6.972H132.551C132.523 7.24267 132.495 7.518 132.467 7.798C132.449 8.06867 132.439 8.33467 132.439 8.596V14H131.305V12.348H131.459C131.31 12.8987 131.002 13.3327 130.535 13.65C130.069 13.9673 129.527 14.126 128.911 14.126ZM129.135 13.202C129.807 13.202 130.339 12.9733 130.731 12.516C131.123 12.0493 131.319 11.3727 131.319 10.486C131.319 9.59 131.123 8.91333 130.731 8.456C130.339 7.98933 129.807 7.756 129.135 7.756C128.473 7.756 127.941 7.98933 127.539 8.456C127.147 8.91333 126.951 9.59 126.951 10.486C126.951 11.3727 127.147 12.0493 127.539 12.516C127.941 12.9733 128.473 13.202 129.135 13.202ZM137.526 14.126C136.836 14.126 136.234 13.9767 135.72 13.678C135.216 13.3793 134.824 12.9547 134.544 12.404C134.274 11.8533 134.138 11.2 134.138 10.444C134.138 9.67867 134.278 9.03 134.558 8.498C134.838 7.95667 135.23 7.546 135.734 7.266C136.248 6.986 136.845 6.846 137.526 6.846C137.974 6.846 138.408 6.92533 138.828 7.084C139.258 7.24267 139.612 7.46667 139.892 7.756L139.486 8.568C139.206 8.29733 138.898 8.09667 138.562 7.966C138.236 7.83533 137.914 7.77 137.596 7.77C136.868 7.77 136.304 7.99867 135.902 8.456C135.501 8.91333 135.3 9.58067 135.3 10.458C135.3 11.326 135.501 11.998 135.902 12.474C136.304 12.95 136.868 13.188 137.596 13.188C137.904 13.188 138.222 13.1273 138.548 13.006C138.884 12.8847 139.197 12.684 139.486 12.404L139.892 13.202C139.603 13.5007 139.244 13.7293 138.814 13.888C138.385 14.0467 137.956 14.126 137.526 14.126ZM142.873 14V7.882H140.325V6.972H146.569V7.882H144.007V14H142.873ZM147.536 14V6.972H148.67V9.912H152.534V6.972H153.668V14H152.534V10.822H148.67V14H147.536ZM158.633 14.126C157.961 14.126 157.373 13.9813 156.869 13.692C156.374 13.3933 155.992 12.9733 155.721 12.432C155.45 11.8813 155.315 11.2327 155.315 10.486C155.315 9.73 155.45 9.08133 155.721 8.54C155.992 7.99867 156.374 7.58333 156.869 7.294C157.373 6.99533 157.961 6.846 158.633 6.846C159.314 6.846 159.902 6.99533 160.397 7.294C160.901 7.58333 161.288 7.99867 161.559 8.54C161.839 9.08133 161.979 9.73 161.979 10.486C161.979 11.2327 161.839 11.8813 161.559 12.432C161.288 12.9733 160.901 13.3933 160.397 13.692C159.902 13.9813 159.314 14.126 158.633 14.126ZM158.633 13.202C159.305 13.202 159.837 12.9733 160.229 12.516C160.621 12.0493 160.817 11.3727 160.817 10.486C160.817 9.59 160.616 8.91333 160.215 8.456C159.823 7.98933 159.296 7.756 158.633 7.756C157.97 7.756 157.443 7.98933 157.051 8.456C156.659 8.91333 156.463 9.59 156.463 10.486C156.463 11.3727 156.659 12.0493 157.051 12.516C157.443 12.9733 157.97 13.202 158.633 13.202ZM166.796 14.126C165.694 14.126 164.826 13.8087 164.192 13.174C163.557 12.53 163.24 11.6387 163.24 10.5C163.24 9.76267 163.38 9.12333 163.66 8.582C163.94 8.03133 164.332 7.60667 164.836 7.308C165.34 7 165.918 6.846 166.572 6.846C167.216 6.846 167.757 6.98133 168.196 7.252C168.634 7.52267 168.97 7.91 169.204 8.414C169.437 8.90867 169.554 9.49667 169.554 10.178V10.598H164.108V9.884H168.812L168.574 10.066C168.574 9.31933 168.406 8.736 168.07 8.316C167.734 7.896 167.234 7.686 166.572 7.686C165.872 7.686 165.326 7.93333 164.934 8.428C164.542 8.91333 164.346 9.57133 164.346 10.402V10.528C164.346 11.4053 164.56 12.0727 164.99 12.53C165.428 12.978 166.04 13.202 166.824 13.202C167.244 13.202 167.636 13.1413 168 13.02C168.373 12.8893 168.728 12.6793 169.064 12.39L169.456 13.188C169.148 13.4867 168.756 13.72 168.28 13.888C167.813 14.0467 167.318 14.126 166.796 14.126ZM174.6 14V6.972H180.69V14H179.556V7.868H175.734V14H174.6ZM182.772 17.024V8.596C182.772 8.33467 182.758 8.06867 182.73 7.798C182.712 7.518 182.688 7.24267 182.66 6.972H183.752L183.906 8.638H183.738C183.888 8.08733 184.191 7.65333 184.648 7.336C185.106 7.00933 185.652 6.846 186.286 6.846C186.921 6.846 187.467 6.99067 187.924 7.28C188.391 7.56933 188.755 7.98467 189.016 8.526C189.278 9.06733 189.408 9.72067 189.408 10.486C189.408 11.242 189.278 11.8907 189.016 12.432C188.764 12.9733 188.405 13.3933 187.938 13.692C187.472 13.9813 186.921 14.126 186.286 14.126C185.661 14.126 185.12 13.9673 184.662 13.65C184.205 13.3327 183.902 12.8987 183.752 12.348H183.906V17.024H182.772ZM186.062 13.202C186.734 13.202 187.266 12.9733 187.658 12.516C188.06 12.0493 188.26 11.3727 188.26 10.486C188.26 9.59 188.06 8.91333 187.658 8.456C187.266 7.98933 186.734 7.756 186.062 7.756C185.4 7.756 184.868 7.98933 184.466 8.456C184.074 8.91333 183.878 9.59 183.878 10.486C183.878 11.3727 184.074 12.0493 184.466 12.516C184.868 12.9733 185.4 13.202 186.062 13.202ZM194.229 14.126C193.128 14.126 192.26 13.8087 191.625 13.174C190.991 12.53 190.673 11.6387 190.673 10.5C190.673 9.76267 190.813 9.12333 191.093 8.582C191.373 8.03133 191.765 7.60667 192.269 7.308C192.773 7 193.352 6.846 194.005 6.846C194.649 6.846 195.191 6.98133 195.629 7.252C196.068 7.52267 196.404 7.91 196.637 8.414C196.871 8.90867 196.987 9.49667 196.987 10.178V10.598H191.541V9.884H196.245L196.007 10.066C196.007 9.31933 195.839 8.736 195.503 8.316C195.167 7.896 194.668 7.686 194.005 7.686C193.305 7.686 192.759 7.93333 192.367 8.428C191.975 8.91333 191.779 9.57133 191.779 10.402V10.528C191.779 11.4053 191.994 12.0727 192.423 12.53C192.862 12.978 193.473 13.202 194.257 13.202C194.677 13.202 195.069 13.1413 195.433 13.02C195.807 12.8893 196.161 12.6793 196.497 12.39L196.889 13.188C196.581 13.4867 196.189 13.72 195.713 13.888C195.247 14.0467 194.752 14.126 194.229 14.126ZM197.851 15.82V13.104H198.593C198.929 12.628 199.172 12.0587 199.321 11.396C199.471 10.7333 199.545 9.94933 199.545 9.044V6.972H204.487V13.104H205.593V15.82H204.613V14H198.817V15.82H197.851ZM199.685 13.118H203.409V7.854H200.539V9.226C200.539 9.96333 200.465 10.6773 200.315 11.368C200.175 12.0493 199.965 12.6327 199.685 13.118ZM206.901 14V6.972H212.991V14H211.857V7.868H208.035V14H206.901ZM215.073 17.024V8.596C215.073 8.33467 215.059 8.06867 215.031 7.798C215.012 7.518 214.989 7.24267 214.961 6.972H216.053L216.207 8.638H216.039C216.188 8.08733 216.492 7.65333 216.949 7.336C217.406 7.00933 217.952 6.846 218.587 6.846C219.222 6.846 219.768 6.99067 220.225 7.28C220.692 7.56933 221.056 7.98467 221.317 8.526C221.578 9.06733 221.709 9.72067 221.709 10.486C221.709 11.242 221.578 11.8907 221.317 12.432C221.065 12.9733 220.706 13.3933 220.239 13.692C219.772 13.9813 219.222 14.126 218.587 14.126C217.962 14.126 217.42 13.9673 216.963 13.65C216.506 13.3327 216.202 12.8987 216.053 12.348H216.207V17.024H215.073ZM218.363 13.202C219.035 13.202 219.567 12.9733 219.959 12.516C220.36 12.0493 220.561 11.3727 220.561 10.486C220.561 9.59 220.36 8.91333 219.959 8.456C219.567 7.98933 219.035 7.756 218.363 7.756C217.7 7.756 217.168 7.98933 216.767 8.456C216.375 8.91333 216.179 9.59 216.179 10.486C216.179 11.3727 216.375 12.0493 216.767 12.516C217.168 12.9733 217.7 13.202 218.363 13.202ZM223.352 14V6.972H224.388V12.95H224.01L228.49 6.972H229.442V14H228.42V8.008H228.798L224.318 14H223.352ZM230.908 14L232.028 12.068C232.205 11.76 232.429 11.5127 232.7 11.326C232.971 11.13 233.255 11.032 233.554 11.032H233.75L233.736 11.158C232.943 11.158 232.327 10.9807 231.888 10.626C231.449 10.262 231.23 9.73933 231.23 9.058C231.23 8.40467 231.445 7.896 231.874 7.532C232.303 7.15867 232.943 6.972 233.792 6.972H236.914V14H235.85V11.284H234.8C234.408 11.284 234.077 11.382 233.806 11.578C233.535 11.774 233.307 12.0213 233.12 12.32L232.168 14H230.908ZM233.988 10.486H235.85V7.756H233.988C233.419 7.756 232.994 7.87733 232.714 8.12C232.443 8.36267 232.308 8.694 232.308 9.114C232.308 9.55267 232.443 9.89333 232.714 10.136C232.994 10.3693 233.419 10.486 233.988 10.486ZM240.44 14V7.882H237.892V6.972H244.136V7.882H241.574V14H240.44ZM245.103 14V6.972H246.139V12.95H245.761L250.241 6.972H251.193V14H250.171V8.008H250.549L246.069 14H245.103ZM256.397 14.126C255.296 14.126 254.428 13.8087 253.793 13.174C253.158 12.53 252.841 11.6387 252.841 10.5C252.841 9.76267 252.981 9.12333 253.261 8.582C253.541 8.03133 253.933 7.60667 254.437 7.308C254.941 7 255.52 6.846 256.173 6.846C256.817 6.846 257.358 6.98133 257.797 7.252C258.236 7.52267 258.572 7.91 258.805 8.414C259.038 8.90867 259.155 9.49667 259.155 10.178V10.598H253.709V9.884H258.413L258.175 10.066C258.175 9.31933 258.007 8.736 257.671 8.316C257.335 7.896 256.836 7.686 256.173 7.686C255.473 7.686 254.927 7.93333 254.535 8.428C254.143 8.91333 253.947 9.57133 253.947 10.402V10.528C253.947 11.4053 254.162 12.0727 254.591 12.53C255.03 12.978 255.641 13.202 256.425 13.202C256.845 13.202 257.237 13.1413 257.601 13.02C257.974 12.8893 258.329 12.6793 258.665 12.39L259.057 13.188C258.749 13.4867 258.357 13.72 257.881 13.888C257.414 14.0467 256.92 14.126 256.397 14.126Z" fill="#011B3E"/>
<path d="M15.5518 28.8584H19.6289C26.1393 28.8584 30.7454 29.8105 33.4473 31.7148C36.1654 33.6029 37.5244 36.028 37.5244 38.9902C37.5244 42.5872 36.2386 45.1589 33.667 46.7051C31.1117 48.235 27.6611 49 23.3154 49H2.6123V46.7295H5.93262C6.55111 46.7295 7.01497 46.5179 7.32422 46.0947C7.64974 45.6553 7.8125 45.1344 7.8125 44.5322V16.5781C7.8125 15.6341 7.01497 15.1621 5.41992 15.1621H2.6123V12.8916H34.2041L34.5703 25.0498H32.373C32.2103 23.2594 31.7708 21.5179 31.0547 19.8252C30.3385 18.1162 29.4108 16.9118 28.2715 16.2119C27.1322 15.512 25.4232 15.1621 23.1445 15.1621H17.8223C16.3086 15.1621 15.5518 15.805 15.5518 17.0908V28.8584ZM15.5518 31.1045V44.6299C15.5518 46.0296 16.097 46.7295 17.1875 46.7295H21.875C23.877 46.7295 25.6022 46.168 27.0508 45.0449C28.5156 43.9219 29.248 41.9688 29.248 39.1855C29.248 33.7982 26.5137 31.1045 21.0449 31.1045H15.5518ZM42.3701 12.8916H73.9375L74.7432 26.6123H72.5215C72.0007 23.6826 71.3252 21.3958 70.4951 19.752C69.665 18.1081 68.7129 16.9443 67.6387 16.2607C66.5807 15.5609 65.417 15.2109 64.1475 15.2109C63.415 15.2109 62.8779 15.3656 62.5361 15.6748C62.1943 15.9678 62.0234 16.3991 62.0234 16.9688V44.8984C62.0234 45.4355 62.1862 45.875 62.5117 46.2168C62.8535 46.5586 63.2604 46.7295 63.7324 46.7295H67.834V49H48.5225V46.7295H52.4287C53.0146 46.7295 53.4785 46.5667 53.8203 46.2412C54.1621 45.8994 54.333 45.4518 54.333 44.8984V17.1152C54.333 16.4642 54.154 15.984 53.7959 15.6748C53.4541 15.3656 52.9089 15.2109 52.1602 15.2109C48.0098 15.2109 45.2021 19.0114 43.7373 26.6123H41.5889L42.3701 12.8916ZM78.6367 12.8916H100.536C103.938 12.8916 106.615 13.7054 108.568 15.333C110.521 16.9443 111.498 18.9544 111.498 21.3633C111.498 23.4792 110.717 25.2695 109.154 26.7344C107.608 28.1992 105.281 29.3385 102.172 30.1523C106.29 30.8359 109.211 31.9671 110.937 33.5459C112.678 35.1247 113.549 37.1022 113.549 39.4785C113.549 41.5781 112.93 43.3848 111.693 44.8984C110.814 45.9727 109.276 46.9248 107.079 47.7549C104.898 48.585 102.318 49 99.3398 49H78.6367V46.7295H81.957C82.5267 46.7295 82.958 46.5586 83.251 46.2168C83.6416 45.7448 83.8369 45.1833 83.8369 44.5322V16.5781C83.8369 16.1549 83.6497 15.8132 83.2754 15.5527C82.9173 15.2923 82.307 15.1621 81.4443 15.1621H78.6367V12.8916ZM91.5762 29.249H95.6533C98.4528 29.249 100.455 28.6631 101.659 27.4912C102.864 26.3193 103.466 24.3825 103.466 21.6807C103.466 19.3369 102.888 17.6686 101.732 16.6758C100.577 15.6829 98.3796 15.1865 95.1406 15.1865C93.5944 15.1865 92.6097 15.3249 92.1865 15.6016C91.7796 15.8783 91.5762 16.3828 91.5762 17.1152V29.249ZM91.5762 31.4951V44.6299C91.5762 45.3135 91.7227 45.8343 92.0156 46.1924C92.3086 46.5505 92.7074 46.7295 93.2119 46.7295H97.8994C100.194 46.7295 101.993 46.1029 103.295 44.8496C104.613 43.5964 105.272 41.7572 105.272 39.332C105.272 36.793 104.573 34.8561 103.173 33.5215C101.773 32.1706 99.7386 31.4951 97.0693 31.4951H91.5762Z" fill="#011B3E"/>
</svg>
