<svg width="110" height="51" viewBox="0 0 110 51" fill="none" xmlns="http://www.w3.org/2000/svg">
<path d="M1.5 50.5C2.3 50.5 3.09427 50 3.09427 49.3C3.00103 34.1666 2.80433 18.7396 2.80006 3.59981C2.79998 3.32367 3.02454 3.10001 3.30067 3.10001C39.1163 3.1 73.0655 3.09861 108.6 2.8C109.4 2.8 110 2.20001 110 1.40001C110 0.600009 109.4 0 108.6 0C72.4 0.3 37.9 0.300003 1.40002 0.300003C0.626831 0.300003 0 0.926802 0 1.7C0 17.4 0 33.5 0 49.3C0 50 0.699997 50.5 1.5 50.5Z" fill="#011B3E"/>
<path d="M10.2001 50.5002C11.0001 50.5002 11.6001 49.9002 11.6001 49.1002C11.7974 36.3734 11.8001 23.744 11.8001 11.4999C11.8001 11.2238 12.0236 11.0002 12.2998 11.0002C43.7426 11.0002 76.0671 11.0002 107.6 11.0002C108.4 11.0002 109 10.4002 109 9.6002C109 8.8002 108.4 8.2002 107.6 8.2002C75.4001 8.2002 42.4001 8.2002 10.4001 8.2002C9.62695 8.2002 9.00012 8.827 9.00012 9.6002C9.00012 22.4002 9.00011 35.6002 8.80011 49.0002C8.80011 49.8002 9.50014 50.5002 10.2001 50.5002Z" fill="#011B3E"/>
<path d="M19.6 50.4998C20.4 50.4998 21 49.8998 21 49.0998C20.8035 39.3729 20.8 28.9702 20.8 19.599C20.8 19.3229 21.0235 19.0998 21.2996 19.0998C49.7435 19.0998 79.0671 19.1021 107.6 19.4998C108.3 19.4998 109 18.8998 109 18.0998C109 17.2998 108.4 16.6998 107.6 16.6998C78.4 16.2998 48.4 16.2998 19.4 16.2998C18.6268 16.2998 18 16.9266 18 17.6998C18 27.4998 18 38.6998 18.2 49.1998C18.2 49.8998 18.8 50.4998 19.6 50.4998Z" fill="#011B3E"/>
<path d="M28.4 50.8C29.2 50.8 29.8 50.2 29.8 49.4C29.6036 39.6773 29.793 36.4168 29.7998 27.3044C29.8 27.0282 30.0274 26.8 30.3036 26.8C58.6401 26.8012 78.9687 26.9024 107.5 27.3C108.2 27.3 108.9 26.7 108.9 25.9C108.9 25.1 108.3 24.5 107.5 24.5C78.3 24.1 57.4 24 28.4 24C27.6268 24 27 24.6268 27 25.4C27 35.2 26.8 39 27 49.5C27 50.2 27.6 50.8 28.4 50.8Z" fill="#011B3E"/>
<path d="M38.3001 50.7002C39.1001 50.7002 39.7001 50.1002 39.7001 49.3002C39.7964 45.2556 39.8927 40.8401 39.8997 36.5002C39.9002 36.224 40.124 36.0002 40.4001 36.0002C62.7349 36.0002 85.1683 36.0002 107.7 36.0002C108.5 36.0002 109.1 35.4002 109.1 34.6002C109.1 33.8002 108.5 33.2002 107.7 33.2002C84.5001 33.2002 61.5001 33.2002 38.5001 33.2002C37.6165 33.2002 36.9001 33.9165 36.9001 34.8002V35C36.8003 40 37 45 36.9001 49.2002C36.8001 50.0002 37.4001 50.6002 38.3001 50.7002C38.2001 50.7002 38.2001 50.7002 38.3001 50.7002Z" fill="#011B3E"/>
</svg>
