<svg width="80" height="55" viewBox="0 0 80 55" fill="none" xmlns="http://www.w3.org/2000/svg">
<path d="M15.7418 0.159432C8.66644 1.17645 3.38532 5.94608 0.677064 12.7846C0.169266 14.5381 0 14.8888 0 17.8697C0.169266 21.552 0.406257 23.0248 1.79424 26.0408C4.90873 32.704 11.2393 36.7721 18.7885 36.9474L21.1244 37.0176L21.2598 37.8242C21.6999 40.4193 20.1088 45.6447 16.9605 51.9572C15.4371 54.9732 15.3694 55.1485 15.911 54.9381C16.7574 54.5874 20.075 51.7468 22.4785 49.2569C34.3272 37.0176 39.9807 21.587 36.1891 11.7675C34.7673 8.08516 31.1111 4.19243 27.1841 2.12333C23.9004 0.439988 19.2625 -0.366611 15.7418 0.159432Z" fill="#EDF7FF"/>
<path d="M58.4636 0.159487C52.7424 0.931018 47.4951 4.61332 44.753 9.87376C42.4172 14.3276 42.1125 20.2544 44.0421 24.9888C45.3285 28.2152 47.9352 31.5117 50.6096 33.4055C53.995 35.7551 57.3126 36.8423 61.5104 36.9475L63.8462 37.0176L63.9817 37.8242C64.4217 40.4544 62.8984 45.5045 59.6484 51.9573C58.1251 54.9733 58.0573 55.1486 58.5651 54.9382C59.8516 54.4472 64.6587 49.9934 67.367 46.8371C78.9786 33.2652 83.1087 18.1502 77.5568 9.24251C73.596 2.82478 65.9113 -0.822461 58.4636 0.159487Z" fill="#EDF7FF"/>
</svg>
