<svg width="24" height="24" viewBox="0 0 24 24" fill="none" xmlns="http://www.w3.org/2000/svg">
<g clip-path="url(#clip0_407_3846)">
<path d="M22.4681 1.35421L6.11039 14.9862M9.96411 18.8571L13.6978 22.5736C13.9271 22.8087 14.2138 22.9797 14.5295 23.0699C14.8452 23.1601 15.179 23.1663 15.4978 23.0879C15.8184 23.0132 16.1144 22.8573 16.3573 22.6351C16.6001 22.413 16.7818 22.132 16.8847 21.8194L23.015 3.44221C23.1432 3.09802 23.1699 2.72422 23.0917 2.36532C23.0136 2.00642 22.834 1.67752 22.5742 1.4178C22.3145 1.15807 21.9856 0.978446 21.6267 0.900311C21.2678 0.822176 20.894 0.84882 20.5498 0.977071L2.17268 7.10907C1.84924 7.21929 1.56111 7.41391 1.33809 7.6728C1.11506 7.93169 0.96524 8.24545 0.904109 8.58164C0.840969 8.88762 0.854914 9.2045 0.94469 9.50375C1.03447 9.80301 1.19725 10.0752 1.4184 10.2959L6.11039 14.9879L5.95611 20.9296L9.96411 18.8588V18.8571Z" stroke="#011B3E" stroke-linecap="round" stroke-linejoin="round"/>
</g>
<defs>
<clipPath id="clip0_407_3846">
<rect width="24" height="24" fill="white"/>
</clipPath>
</defs>
</svg>
