<svg width="24" height="24" viewBox="0 0 24 24" fill="none" xmlns="http://www.w3.org/2000/svg">
<rect width="24" height="24" rx="12" fill="#EDF7FF"/>
<path d="M18.1909 12.6413C18.2318 12.314 18.2727 12.0277 18.2727 11.7004C18.2727 8.42766 15.6136 5.72766 12.3 5.72766C11.9727 5.72766 11.6864 5.76857 11.3591 5.80948C10.8273 5.52312 10.2545 5.40039 9.68182 5.40039C7.63636 5.40039 6 7.03675 6 9.08221C6 9.65494 6.12273 10.2277 6.40909 10.7595C6.36818 11.0868 6.32727 11.3731 6.32727 11.7004C6.32727 14.9731 8.98636 17.6731 12.3 17.6731C12.6273 17.6731 12.9136 17.6322 13.2409 17.5913C13.7727 17.8368 14.3455 18.0004 14.9182 18.0004C16.9636 18.0004 18.6 16.364 18.6 14.3186C18.6 13.7458 18.4364 13.1731 18.1909 12.6413ZM14.7955 13.8686C14.6727 14.114 14.5091 14.3186 14.2636 14.4822C14.0182 14.6458 13.7727 14.7686 13.4455 14.8504C13.1182 14.9322 12.75 14.9731 12.3409 14.9731C11.4818 14.9731 10.7864 14.7686 10.2955 14.4004C10.0091 14.1549 9.76364 13.8686 9.64091 13.5004C9.47727 13.1731 9.76364 12.764 10.1727 12.764H10.2955C10.5409 12.764 10.7864 12.9277 10.8682 13.1322C10.95 13.3368 11.0727 13.5004 11.2364 13.6231C11.4818 13.8277 11.85 13.9095 12.3 13.9095C12.7091 13.9095 13.0364 13.8277 13.2818 13.7049C13.5273 13.5822 13.65 13.3368 13.65 13.0913C13.65 12.9686 13.6091 12.8868 13.5682 12.8049C13.5273 12.7231 13.4045 12.6413 13.3227 12.6004C13.2 12.5186 13.0773 12.4777 12.8727 12.4368C12.7091 12.3958 12.5045 12.314 12.2591 12.2731L12.0136 12.1913C11.7273 12.1095 11.4 12.0277 11.1545 11.9458C10.8682 11.864 10.6227 11.7413 10.4182 11.6186C10.2136 11.4958 10.05 11.3322 9.92727 11.0868C9.80455 10.8822 9.76364 10.5958 9.76364 10.2686C9.76364 9.9413 9.84545 9.65494 9.96818 9.40948C10.0909 9.16403 10.2955 8.95948 10.5 8.83675C10.7455 8.67312 10.9909 8.55039 11.3182 8.50948C11.6045 8.42766 11.9318 8.38675 12.3 8.38675C12.7091 8.38675 13.0364 8.42766 13.3636 8.50948C13.6909 8.5913 13.9364 8.71403 14.1818 8.91857C14.4273 9.08221 14.5909 9.28675 14.7136 9.57312C14.9182 9.9413 14.6318 10.4322 14.1818 10.4322H14.0591C13.8136 10.4322 13.6091 10.3095 13.4864 10.1049C13.4045 9.98221 13.3227 9.85948 13.2 9.73675C12.9955 9.57312 12.6682 9.4913 12.3 9.4913C11.9318 9.4913 11.6455 9.57312 11.4409 9.69585C11.2364 9.81857 11.1545 10.0231 11.1545 10.2277C11.1545 10.3504 11.1955 10.4322 11.2364 10.514C11.2773 10.5958 11.3591 10.6777 11.4818 10.7186C11.6045 10.7595 11.7273 10.8413 11.8909 10.8822C12.0545 10.9231 12.2591 10.964 12.5045 11.0458C12.75 11.0868 12.9545 11.1686 13.2 11.2095C13.4045 11.2504 13.6091 11.3322 13.8136 11.3731C14.0182 11.4549 14.1818 11.5368 14.3455 11.6186C14.5091 11.7004 14.6318 11.8231 14.7545 11.9458C14.8773 12.0686 14.9591 12.2322 15 12.3958C15.0818 12.5595 15.0818 12.8049 15.0818 13.0504C15 13.3368 14.9182 13.6231 14.7955 13.8686Z" fill="#011B3E"/>
</svg>
